<svg width="525" height="543" viewBox="0 0 525 543" fill="none" xmlns="http://www.w3.org/2000/svg">
<path d="M517.31 279.78L437.977 200.374C427.727 190.113 411.106 190.113 400.855 200.374L385 216.244V26.2742C385 11.7638 373.247 0 358.75 0H26.25C11.753 0 0 11.7638 0 26.2742V446.665C0 461.175 11.753 472.939 26.25 472.939H175V516.726C175 531.236 186.753 543 201.25 543H280.582C287.546 543 294.222 540.231 299.145 535.303L517.312 316.935C527.563 306.674 527.563 290.041 517.31 279.78ZM52.4999 52.5484H332.5V268.792L182.689 418.739C182.161 419.266 181.673 419.823 181.195 420.389H52.4999V52.5484ZM269.71 490.452H227.5V448.201L419.417 256.109L461.627 298.357L269.71 490.452Z" fill="#F0D9B5"/>
</svg>
