<svg width="385" height="521" viewBox="0 0 385 521" fill="none" xmlns="http://www.w3.org/2000/svg">
<path d="M350.616 0H34.3839C15.3943 0 0 15.3978 0 34.3917V486.608C0 505.602 15.3943 521 34.3839 521H350.616C369.606 521 385 505.602 385 486.608V34.3917C385 15.3978 369.606 0 350.616 0ZM54.5839 389.176V340.251C54.5839 336.343 57.7511 333.175 61.6589 333.175H110.572C114.48 333.175 117.647 336.343 117.647 340.251V389.176C117.647 393.084 114.48 396.252 110.572 396.252H61.6589C57.7511 396.252 54.5839 393.083 54.5839 389.176ZM54.5839 290.639V241.715C54.5839 237.806 57.7511 234.638 61.6589 234.638H110.572C114.48 234.638 117.647 237.806 117.647 241.715V290.639C117.647 294.547 114.48 297.715 110.572 297.715H61.6589C57.7511 297.715 54.5839 294.546 54.5839 290.639ZM281.832 476.828H103.168C90.6596 476.828 80.5205 466.687 80.5205 454.176C80.5205 441.665 90.6596 431.524 103.168 431.524H281.832C294.34 431.524 304.479 441.665 304.479 454.176C304.479 466.687 294.34 476.828 281.832 476.828ZM168.043 333.174H216.957C220.864 333.174 224.032 336.342 224.032 340.25V389.175C224.032 393.083 220.864 396.251 216.957 396.251H168.043C164.136 396.251 160.969 393.083 160.969 389.175V340.25C160.969 336.343 164.136 333.174 168.043 333.174ZM160.969 290.639V241.715C160.969 237.806 164.136 234.638 168.043 234.638H216.957C220.864 234.638 224.032 237.806 224.032 241.715V290.639C224.032 294.547 220.864 297.715 216.957 297.715H168.043C164.136 297.715 160.969 294.546 160.969 290.639ZM323.341 396.252H274.428C270.52 396.252 267.353 393.084 267.353 389.176V340.251C267.353 336.343 270.52 333.175 274.428 333.175H323.341C327.249 333.175 330.416 336.343 330.416 340.251V389.176C330.416 393.084 327.249 396.252 323.341 396.252ZM323.341 297.715H274.428C270.52 297.715 267.353 294.547 267.353 290.639V241.715C267.353 237.806 270.52 234.638 274.428 234.638H323.341C327.249 234.638 330.416 237.806 330.416 241.715V290.639C330.416 294.547 327.249 297.715 323.341 297.715ZM332.912 169.48C332.912 182.844 322.081 193.676 308.721 193.676H76.2798C62.9192 193.676 52.0882 182.843 52.0882 169.48V70.6329C52.0882 57.2704 62.9192 46.437 76.2798 46.437H308.721C322.081 46.437 332.912 57.2704 332.912 70.6329V169.48Z" fill="#F0D9B5"/>
</svg>
