<svg width="800" height="879" viewBox="0 0 800 879" fill="none" xmlns="http://www.w3.org/2000/svg">
<path d="M766.914 303.967C745.924 293.686 729.762 338.836 724.304 362.696C710.725 376.068 688.402 373.993 673.405 376.922C658.409 379.85 662.014 396.822 637.75 396.856C613.486 396.889 584 404.228 531.935 415.713C479.869 427.198 452.135 426.765 426.81 418.059C406.549 411.094 400.41 426.087 399.874 434.455L425.712 526.018L451.234 538.519C457.437 530.05 477.148 518.334 504.787 527.352C532.427 536.369 584.769 578.857 629.988 577.992C666.164 577.3 700.02 556.676 712.426 546.451L689.475 569.414C633.47 623.348 515.867 607.661 464.067 593.075C429.566 620.095 438.873 713.64 447.84 757.035L442.383 768.176L694.35 891.593L699.357 881.371C751.919 863.372 808.785 798.121 830.648 767.746C815.881 801.124 760.697 856.034 734.951 879.317L800.758 944.164C882.607 895.606 962.337 785.948 959.544 635.092C957.303 514.084 871.345 434.46 828.646 409.774L820.139 421.404C814.836 344.052 782.446 310.883 766.914 303.967Z" fill="white" stroke="black" stroke-width="2"/>
<rect x="410.599" y="752.178" width="341.35" height="49.702" transform="rotate(26.0963 410.599 752.178)" fill="white" stroke="black" stroke-width="2"/>
<rect x="347.411" y="778.795" width="431.426" height="52.2854" transform="rotate(26.0963 347.411 778.795)" fill="white" stroke="black" stroke-width="2"/>
<rect x="297.747" y="814.92" width="488.848" height="52.2853" transform="rotate(26.0963 297.747 814.92)" fill="white" stroke="black" stroke-width="2"/>
</svg>
