<svg width="673" height="896" viewBox="0 0 673 896" fill="none" xmlns="http://www.w3.org/2000/svg">
<path d="M263.726 70.2228C284.035 75.1382 269.367 115.424 259.495 134.953C261.199 151.906 277.738 163.227 286.381 173.806C295.023 184.385 282.851 194 299.522 207.88C316.192 221.76 332.283 243.647 361.536 281.281C390.79 318.916 410.114 334.456 432.506 342.931C450.42 349.711 446.079 363.53 441.67 369.592L371.606 417.817L346.912 411.84C347.482 402.472 340.614 383.157 316.453 373.575C292.292 363.993 232.025 363.325 201.415 336.905C176.927 315.77 165.417 282.249 162.723 268.131L165.396 297.032C173.118 366.115 262.968 422.487 306.928 442.037C315.229 480.326 255.404 539.355 224.454 564.083L221.845 574.862L-21.9518 515.856L-19.5581 505.966C-45.4327 463.568 -47.2832 386.21 -44.9741 352.831C-53.8788 384.223 -47.2799 453.507 -42.8674 484.226L-125.166 491.248C-153.734 411.104 -145.95 290.143 -57.8759 187.974C12.7719 106.02 117.37 100.342 160.838 107.747L160.048 120.604C207.871 70.4271 249.093 66.1094 263.726 70.2228Z" fill="#333333" stroke="black" stroke-width="2"/>
<rect x="-1.20717" y="0.736703" width="304.962" height="44.2227" transform="matrix(-0.971938 -0.235236 -0.235236 0.971938 251.707 581.084)" fill="#333333" stroke="black" stroke-width="2"/>
<rect x="-1.20717" y="0.736703" width="385.492" height="46.5322" transform="matrix(-0.971938 -0.235236 -0.235236 0.971938 279.973 635.479)" fill="#333333" stroke="black" stroke-width="2"/>
<rect x="-1.20717" y="0.736703" width="436.828" height="46.5322" transform="matrix(-0.971938 -0.235236 -0.235236 0.971938 293.504 688.686)" fill="#333333" stroke="black" stroke-width="2"/>
</svg>
