<svg width="462" height="494" viewBox="0 0 462 494" fill="none" xmlns="http://www.w3.org/2000/svg">
<path d="M353.169 459.912H276.481L251.721 336.109H210.171L185.412 459.912H108.724C99.3109 459.912 91.6797 467.543 91.6797 476.956C91.6797 486.369 99.3109 494 108.724 494H353.169C362.581 494 370.213 486.369 370.213 476.956C370.213 467.543 362.581 459.912 353.169 459.912Z" fill="#F0D9B5"/>
<path d="M96.7961 201.956V184.516C34.2361 180.246 34.1579 141.638 34.1047 110.26C34.0781 94.6065 34.088 57.5598 34.0963 35.6658H96.7961V1.57812H17.0608C7.65155 1.57812 0.0219925 9.20269 0.0170026 18.612C0.0170026 18.612 -0.0212533 87.3894 0.0170026 110.316C0.046942 127.768 0.0918516 154.141 14.0985 177.141C29.6437 202.663 57.8217 216.591 97.8772 218.687C97.1903 213.201 96.7961 207.626 96.7961 201.956Z" fill="#F0D9B5"/>
<path d="M461.884 18.612C461.879 9.20269 454.249 1.57812 444.84 1.57812H365.105V35.6658H427.804C427.813 57.5581 427.823 94.6065 427.796 110.26C427.743 141.638 427.665 180.248 365.105 184.516V201.956C365.105 207.626 364.71 213.201 364.023 218.689C404.079 216.591 432.257 202.664 447.802 177.143C461.809 154.141 461.854 127.769 461.884 110.318C461.922 87.3894 461.884 18.612 461.884 18.612Z" fill="#F0D9B5"/>
<path d="M210.34 158.855L207.259 179.144L225.604 169.946C227.287 169.103 229.118 168.678 230.951 168.678C232.784 168.678 234.617 169.101 236.299 169.946L254.643 179.144L251.563 158.855C250.999 155.131 252.223 151.362 254.868 148.682L269.284 134.08L249.036 130.74C245.32 130.128 242.114 127.798 240.382 124.453L230.951 106.227L221.519 124.451C219.787 127.795 216.58 130.125 212.865 130.739L192.617 134.079L207.033 148.681C209.679 151.36 210.904 155.131 210.34 158.855Z" fill="#F0D9B5"/>
<path d="M230.948 312.248C291.763 312.248 341.24 262.771 341.24 201.958V0H120.656V201.958C120.656 262.771 170.133 312.248 230.948 312.248ZM156.584 122.369C157.962 118.128 161.588 115.011 165.988 114.285L203.074 108.168L220.351 74.7869C222.402 70.8266 226.489 68.34 230.946 68.34C235.404 68.34 239.492 70.8266 241.542 74.7869L258.818 108.168L295.905 114.285C300.304 115.011 303.93 118.129 305.309 122.369C306.688 126.61 305.585 131.264 302.453 134.438L276.047 161.185L281.689 198.347C282.357 202.756 280.514 207.169 276.905 209.79C274.827 211.301 272.367 212.069 269.891 212.069C268.066 212.069 266.235 211.652 264.545 210.802L230.946 193.954L197.348 210.802C193.361 212.803 188.595 212.412 184.988 209.79C181.378 207.169 179.535 202.756 180.204 198.347L185.846 161.185L159.439 134.438C156.307 131.264 155.206 126.61 156.584 122.369Z" fill="#F0D9B5"/>
</svg>
